<?xml version="1.0" encoding="UTF-8"?>
<svg width="91px" height="105px" viewBox="0 0 91 105" version="1.1" xmlns="http://www.w3.org/2000/svg" xmlns:xlink="http://www.w3.org/1999/xlink">
    <title>7BD61C35-DC13-46E2-99DE-68A3BBF5EFAE</title>
    <g id="Gift-Cards" stroke="none" stroke-width="1" fill="none" fill-rule="evenodd" opacity="0.08">
        <g id="WNG---Mobile---HP---Gift-Cards:-Hero-banner" transform="translate(-276.000000, -201.000000)" fill="#589442">
            <g id="Section" transform="translate(0.000000, 102.000000)">
                <g id="Brand-/-Compact" transform="translate(276.000000, 99.054945)">
                    <path d="M43.575241,41.2116702 L43.575241,0 L47.4284287,0 L47.4284287,41.2116702 L43.575241,41.2116702 Z M56.9563527,1.05613312 L56.9563527,39.837518 L53.0985779,40.6122981 L53.0985779,0.520880725 L56.9563527,1.05613312 Z M37.9001377,0.521249229 L37.9001377,40.6117454 L34.0396106,39.8369652 L34.0396106,1.05650162 L37.9001377,0.521249229 Z M41.0089262,99.4977996 C40.8492942,102.010998 40.7144326,104 40.7144326,104 C17.8320022,101.723565 0,83.4429917 0,61.219423 C0,43.3359129 11.2714915,28.1913104 27.6961627,21.7001084 C27.377816,25.3280325 26.9080941,32.3323766 26.7805719,35.0500953 C26.6521324,37.7641289 26.5622246,42.6827391 27.291578,46.9297503 C27.9264366,50.6249265 29.5475277,54.4371027 31.2777925,57.6016328 C33.0502588,60.8592101 34.9346511,64.1803545 35.9933603,66.5341752 C37.04473,68.8944448 37.6493135,70.1934222 38.4227034,72.6706919 C39.1850841,75.1516466 39.7006773,77.019963 39.9548042,78.6791533 C40.2089311,80.3466349 40.721772,81.8538172 41.0401187,85.9589543 C41.3621351,90.0714615 41.3006676,90.1599025 41.3006676,91.4929665 C41.3006676,92.8241881 41.1667235,96.9965772 41.0089262,99.4977996 Z M49.9910738,99.4977996 C49.8296068,96.9965772 49.6965801,92.8241881 49.6965801,91.4929665 C49.6965801,90.1599025 49.6396997,90.0714615 49.9617161,85.9589543 C50.2800628,81.8538172 50.7873992,80.3466349 51.0451958,78.6791533 C51.3039098,77.019963 51.8121637,75.1516466 52.5763792,72.6706919 C53.3451819,70.1934222 53.9516003,68.8944448 55.0121443,66.5341752 C56.0653489,64.1803545 57.9543283,60.8592101 59.7222075,57.6016328 C61.4515549,54.4371027 63.072646,50.6249265 63.7075045,46.9297503 C64.4396102,42.6827391 64.3506199,37.7641289 64.2157583,35.0500953 C64.0937407,32.3323766 63.6194317,25.3280325 63.301085,21.7001084 C79.7257563,28.1913104 91,43.3359129 91,61.219423 C91,83.4429917 73.1707501,101.723565 50.2837325,104 C50.2837325,104 50.1497884,102.010998 49.9910738,99.4977996 Z" id="theForkSimple"></path>
                </g>
            </g>
        </g>
    </g>
</svg>